<mxfile host="65bd71144e">
    <diagram id="tfRy4_WWSwTeZ2oiQ5H0" name="ページ1">
        <mxGraphModel dx="1688" dy="1238" grid="1" gridSize="10" guides="1" tooltips="1" connect="1" arrows="1" fold="1" page="0" pageScale="1" pageWidth="3300" pageHeight="4681" math="0" shadow="0">
            <root>
                <mxCell id="0"/>
                <mxCell id="1" parent="0"/>
                <mxCell id="243" value="" style="rounded=0;whiteSpace=wrap;html=1;fillColor=none;dashed=1;" vertex="1" parent="1">
                    <mxGeometry x="2107.62" y="41.29999999999999" width="190" height="802.27" as="geometry"/>
                </mxCell>
                <mxCell id="244" value="" style="rounded=0;whiteSpace=wrap;html=1;fillColor=none;dashed=1;" vertex="1" parent="1">
                    <mxGeometry x="1907.62" y="41.29999999999999" width="190" height="802.27" as="geometry"/>
                </mxCell>
                <mxCell id="241" value="" style="rounded=0;whiteSpace=wrap;html=1;fillColor=none;dashed=1;" vertex="1" parent="1">
                    <mxGeometry x="1560" width="1200" height="883.57" as="geometry"/>
                </mxCell>
                <mxCell id="246" value="" style="rounded=0;whiteSpace=wrap;html=1;fillColor=none;dashed=1;" vertex="1" parent="1">
                    <mxGeometry x="1580" y="45.00000000000001" width="200" height="798.57" as="geometry"/>
                </mxCell>
                <mxCell id="234" value="" style="rounded=0;whiteSpace=wrap;html=1;fillColor=none;dashed=1;" vertex="1" parent="1">
                    <mxGeometry x="220" y="41.43" width="200" height="798.57" as="geometry"/>
                </mxCell>
                <mxCell id="223" value="" style="rounded=0;whiteSpace=wrap;html=1;fillColor=none;dashed=1;" vertex="1" parent="1">
                    <mxGeometry x="-295" y="55" width="190" height="485" as="geometry"/>
                </mxCell>
                <mxCell id="222" value="" style="rounded=0;whiteSpace=wrap;html=1;fillColor=none;dashed=1;" vertex="1" parent="1">
                    <mxGeometry x="-495" y="55" width="190" height="485" as="geometry"/>
                </mxCell>
                <mxCell id="231" value="" style="rounded=0;whiteSpace=wrap;html=1;fillColor=none;dashed=1;" vertex="1" parent="1">
                    <mxGeometry x="200" y="-3.57" width="1280" height="883.57" as="geometry"/>
                </mxCell>
                <mxCell id="233" value="" style="rounded=0;whiteSpace=wrap;html=1;fillColor=none;dashed=1;" vertex="1" parent="1">
                    <mxGeometry x="1027.5" y="37.73" width="392.5" height="802.27" as="geometry"/>
                </mxCell>
                <mxCell id="236" value="" style="rounded=0;whiteSpace=wrap;html=1;fillColor=none;dashed=1;" vertex="1" parent="1">
                    <mxGeometry x="822.5" y="37.73" width="190" height="802.27" as="geometry"/>
                </mxCell>
                <mxCell id="235" value="" style="rounded=0;whiteSpace=wrap;html=1;fillColor=none;dashed=1;" vertex="1" parent="1">
                    <mxGeometry x="614.75" y="35.699999999999996" width="190" height="802.27" as="geometry"/>
                </mxCell>
                <mxCell id="219" value="" style="rounded=0;whiteSpace=wrap;html=1;fillColor=none;dashed=1;" vertex="1" parent="1">
                    <mxGeometry x="-719.5" width="840" height="560" as="geometry"/>
                </mxCell>
                <mxCell id="224" value="" style="rounded=0;whiteSpace=wrap;html=1;fillColor=none;dashed=1;" vertex="1" parent="1">
                    <mxGeometry x="-90" y="55" width="190" height="485" as="geometry"/>
                </mxCell>
                <mxCell id="221" value="" style="rounded=0;whiteSpace=wrap;html=1;fillColor=none;dashed=1;" vertex="1" parent="1">
                    <mxGeometry x="-700" y="55" width="190" height="485" as="geometry"/>
                </mxCell>
                <mxCell id="5" value="" style="endArrow=none;dashed=1;html=1;exitX=0.5;exitY=1;exitDx=0;exitDy=0;" parent="1" edge="1">
                    <mxGeometry width="50" height="50" relative="1" as="geometry">
                        <mxPoint x="320" y="160" as="sourcePoint"/>
                        <mxPoint x="320" y="800" as="targetPoint"/>
                    </mxGeometry>
                </mxCell>
                <mxCell id="7" value="" style="endArrow=none;dashed=1;html=1;exitX=0.5;exitY=1;exitDx=0;exitDy=0;" parent="1" edge="1">
                    <mxGeometry width="50" height="50" relative="1" as="geometry">
                        <mxPoint x="710" y="160" as="sourcePoint"/>
                        <mxPoint x="710" y="800" as="targetPoint"/>
                    </mxGeometry>
                </mxCell>
                <mxCell id="9" value="" style="endArrow=none;dashed=1;html=1;exitX=0.5;exitY=1;exitDx=0;exitDy=0;" parent="1" edge="1">
                    <mxGeometry width="50" height="50" relative="1" as="geometry">
                        <mxPoint x="1120" y="160" as="sourcePoint"/>
                        <mxPoint x="1120" y="800" as="targetPoint"/>
                    </mxGeometry>
                </mxCell>
                <mxCell id="11" value="" style="endArrow=classic;html=1;" parent="1" edge="1">
                    <mxGeometry width="50" height="50" relative="1" as="geometry">
                        <mxPoint x="709.25" y="678.5699999999999" as="sourcePoint"/>
                        <mxPoint x="1320" y="678" as="targetPoint"/>
                    </mxGeometry>
                </mxCell>
                <mxCell id="12" value="" style="endArrow=classic;html=1;" parent="1" edge="1">
                    <mxGeometry width="50" height="50" relative="1" as="geometry">
                        <mxPoint x="320.0000000000002" y="200" as="sourcePoint"/>
                        <mxPoint x="710" y="200" as="targetPoint"/>
                    </mxGeometry>
                </mxCell>
                <mxCell id="13" value="" style="endArrow=classic;html=1;" parent="1" edge="1">
                    <mxGeometry width="50" height="50" relative="1" as="geometry">
                        <mxPoint x="1320" y="716" as="sourcePoint"/>
                        <mxPoint x="709.75" y="718.5699999999999" as="targetPoint"/>
                    </mxGeometry>
                </mxCell>
                <mxCell id="14" value="" style="endArrow=classic;html=1;" parent="1" edge="1">
                    <mxGeometry width="50" height="50" relative="1" as="geometry">
                        <mxPoint x="710" y="757" as="sourcePoint"/>
                        <mxPoint x="319.75" y="757.1399999999999" as="targetPoint"/>
                    </mxGeometry>
                </mxCell>
                <mxCell id="19" value="機能" style="swimlane;whiteSpace=wrap;html=1;" parent="1" vertex="1">
                    <mxGeometry x="240" y="-120" width="200" height="80" as="geometry"/>
                </mxCell>
                <mxCell id="20" value="ファイルアップロード" style="text;html=1;align=center;verticalAlign=middle;resizable=0;points=[];autosize=1;strokeColor=none;fillColor=none;" parent="19" vertex="1">
                    <mxGeometry x="30" y="35" width="140" height="30" as="geometry"/>
                </mxCell>
                <mxCell id="23" value="" style="edgeStyle=elbowEdgeStyle;elbow=horizontal;endArrow=classic;html=1;curved=0;rounded=0;endSize=8;startSize=8;" parent="1" edge="1">
                    <mxGeometry width="50" height="50" relative="1" as="geometry">
                        <mxPoint x="709.75" y="398.57" as="sourcePoint"/>
                        <mxPoint x="709.75" y="438.57" as="targetPoint"/>
                        <Array as="points">
                            <mxPoint x="789.75" y="418.57"/>
                        </Array>
                    </mxGeometry>
                </mxCell>
                <mxCell id="24" value="ファイル暗号化 AES" style="text;html=1;align=center;verticalAlign=middle;resizable=0;points=[];autosize=1;strokeColor=none;fillColor=none;" parent="1" vertex="1">
                    <mxGeometry x="709.75" y="368.57" width="130" height="30" as="geometry"/>
                </mxCell>
                <mxCell id="25" value="req https CSRF対策 ファイルアップロード" style="text;html=1;align=center;verticalAlign=middle;resizable=0;points=[];autosize=1;strokeColor=none;fillColor=none;" parent="1" vertex="1">
                    <mxGeometry x="390" y="170" width="250" height="30" as="geometry"/>
                </mxCell>
                <mxCell id="26" value="INSERT" style="text;html=1;align=center;verticalAlign=middle;resizable=0;points=[];autosize=1;strokeColor=none;fillColor=none;" vertex="1" parent="1">
                    <mxGeometry x="775.25" y="648.5699999999999" width="70" height="30" as="geometry"/>
                </mxCell>
                <mxCell id="27" value="res" style="text;html=1;align=center;verticalAlign=middle;resizable=0;points=[];autosize=1;strokeColor=none;fillColor=none;" vertex="1" parent="1">
                    <mxGeometry x="789.75" y="688.5699999999999" width="40" height="30" as="geometry"/>
                </mxCell>
                <mxCell id="29" value="res https　アクセスパスワード返信" style="text;html=1;align=center;verticalAlign=middle;resizable=0;points=[];autosize=1;strokeColor=none;fillColor=none;" vertex="1" parent="1">
                    <mxGeometry x="410" y="718.5699999999998" width="210" height="30" as="geometry"/>
                </mxCell>
                <mxCell id="89" value="" style="edgeStyle=elbowEdgeStyle;elbow=horizontal;endArrow=classic;html=1;curved=0;rounded=0;endSize=8;startSize=8;" edge="1" parent="1">
                    <mxGeometry width="50" height="50" relative="1" as="geometry">
                        <mxPoint x="709.75" y="478.57" as="sourcePoint"/>
                        <mxPoint x="709.75" y="518.5699999999999" as="targetPoint"/>
                        <Array as="points">
                            <mxPoint x="789.75" y="498.57"/>
                        </Array>
                    </mxGeometry>
                </mxCell>
                <mxCell id="90" value="アクセスパスワード作成" style="text;html=1;align=center;verticalAlign=middle;resizable=0;points=[];autosize=1;strokeColor=none;fillColor=none;" vertex="1" parent="1">
                    <mxGeometry x="709.75" y="447.13999999999993" width="150" height="30" as="geometry"/>
                </mxCell>
                <mxCell id="93" value="" style="endArrow=none;dashed=1;html=1;exitX=0.5;exitY=1;exitDx=0;exitDy=0;" edge="1" parent="1">
                    <mxGeometry width="50" height="50" relative="1" as="geometry">
                        <mxPoint x="-600" y="170" as="sourcePoint"/>
                        <mxPoint x="-600" y="520" as="targetPoint"/>
                    </mxGeometry>
                </mxCell>
                <mxCell id="95" value="" style="endArrow=none;dashed=1;html=1;exitX=0.5;exitY=1;exitDx=0;exitDy=0;" edge="1" parent="1">
                    <mxGeometry width="50" height="50" relative="1" as="geometry">
                        <mxPoint x="-400" y="170" as="sourcePoint"/>
                        <mxPoint x="-401" y="520" as="targetPoint"/>
                    </mxGeometry>
                </mxCell>
                <mxCell id="97" value="" style="endArrow=none;dashed=1;html=1;exitX=0.5;exitY=1;exitDx=0;exitDy=0;" edge="1" parent="1">
                    <mxGeometry width="50" height="50" relative="1" as="geometry">
                        <mxPoint x="15" y="171.43000000000006" as="sourcePoint"/>
                        <mxPoint x="15" y="520" as="targetPoint"/>
                    </mxGeometry>
                </mxCell>
                <mxCell id="99" value="" style="endArrow=classic;html=1;" edge="1" parent="1">
                    <mxGeometry width="50" height="50" relative="1" as="geometry">
                        <mxPoint x="-600.4999999999998" y="238.81999999999994" as="sourcePoint"/>
                        <mxPoint x="-399.5" y="238.81999999999994" as="targetPoint"/>
                    </mxGeometry>
                </mxCell>
                <mxCell id="101" value="" style="endArrow=classic;html=1;" edge="1" parent="1">
                    <mxGeometry width="50" height="50" relative="1" as="geometry">
                        <mxPoint x="-399.9999999999998" y="485.69999999999993" as="sourcePoint"/>
                        <mxPoint x="-600" y="485.69999999999993" as="targetPoint"/>
                    </mxGeometry>
                </mxCell>
                <mxCell id="102" value="機能" style="swimlane;whiteSpace=wrap;html=1;" vertex="1" parent="1">
                    <mxGeometry x="-680" y="-120" width="200" height="80" as="geometry"/>
                </mxCell>
                <mxCell id="103" value="一覧表示" style="text;html=1;align=center;verticalAlign=middle;resizable=0;points=[];autosize=1;strokeColor=none;fillColor=none;" vertex="1" parent="102">
                    <mxGeometry x="65" y="35" width="70" height="30" as="geometry"/>
                </mxCell>
                <mxCell id="106" value="req https&amp;nbsp; CSRF対策" style="text;html=1;align=center;verticalAlign=middle;resizable=0;points=[];autosize=1;strokeColor=none;fillColor=none;" vertex="1" parent="1">
                    <mxGeometry x="-565.5" y="208.81999999999994" width="130" height="30" as="geometry"/>
                </mxCell>
                <mxCell id="109" value="res https　ファイル情報返信" style="text;html=1;align=center;verticalAlign=middle;resizable=0;points=[];autosize=1;strokeColor=none;fillColor=none;" vertex="1" parent="1">
                    <mxGeometry x="-590" y="455.69999999999993" width="180" height="30" as="geometry"/>
                </mxCell>
                <mxCell id="115" value="" style="endArrow=none;dashed=1;html=1;exitX=0.5;exitY=1;exitDx=0;exitDy=0;" edge="1" parent="1">
                    <mxGeometry width="50" height="50" relative="1" as="geometry">
                        <mxPoint x="1682.62" y="155.7" as="sourcePoint"/>
                        <mxPoint x="1682.62" y="795.7" as="targetPoint"/>
                    </mxGeometry>
                </mxCell>
                <mxCell id="117" value="" style="endArrow=none;dashed=1;html=1;exitX=0.5;exitY=1;exitDx=0;exitDy=0;" edge="1" parent="1">
                    <mxGeometry width="50" height="50" relative="1" as="geometry">
                        <mxPoint x="2002.62" y="159.26999999999992" as="sourcePoint"/>
                        <mxPoint x="2002.62" y="795.7" as="targetPoint"/>
                    </mxGeometry>
                </mxCell>
                <mxCell id="119" value="" style="endArrow=none;dashed=1;html=1;exitX=0.5;exitY=1;exitDx=0;exitDy=0;" edge="1" parent="1">
                    <mxGeometry width="50" height="50" relative="1" as="geometry">
                        <mxPoint x="2392.62" y="159.26999999999992" as="sourcePoint"/>
                        <mxPoint x="2391.62" y="795.7" as="targetPoint"/>
                    </mxGeometry>
                </mxCell>
                <mxCell id="120" value="" style="endArrow=classic;html=1;" edge="1" parent="1">
                    <mxGeometry width="50" height="50" relative="1" as="geometry">
                        <mxPoint x="2002.12" y="472.72999999999996" as="sourcePoint"/>
                        <mxPoint x="2602.62" y="470.7" as="targetPoint"/>
                    </mxGeometry>
                </mxCell>
                <mxCell id="121" value="" style="endArrow=classic;html=1;" edge="1" parent="1">
                    <mxGeometry width="50" height="50" relative="1" as="geometry">
                        <mxPoint x="1682.6200000000003" y="195.7" as="sourcePoint"/>
                        <mxPoint x="2002.62" y="195.7" as="targetPoint"/>
                    </mxGeometry>
                </mxCell>
                <mxCell id="122" value="" style="endArrow=classic;html=1;" edge="1" parent="1">
                    <mxGeometry width="50" height="50" relative="1" as="geometry">
                        <mxPoint x="2602.62" y="510.7" as="sourcePoint"/>
                        <mxPoint x="2002.62" y="512.73" as="targetPoint"/>
                    </mxGeometry>
                </mxCell>
                <mxCell id="123" value="" style="endArrow=classic;html=1;" edge="1" parent="1">
                    <mxGeometry width="50" height="50" relative="1" as="geometry">
                        <mxPoint x="2002.62" y="629.1300000000001" as="sourcePoint"/>
                        <mxPoint x="1682.62" y="629.1600000000001" as="targetPoint"/>
                    </mxGeometry>
                </mxCell>
                <mxCell id="124" value="機能" style="swimlane;whiteSpace=wrap;html=1;" vertex="1" parent="1">
                    <mxGeometry x="1600" y="-130" width="200" height="80" as="geometry"/>
                </mxCell>
                <mxCell id="125" value="ファイルダウンロード" style="text;html=1;align=center;verticalAlign=middle;resizable=0;points=[];autosize=1;strokeColor=none;fillColor=none;" vertex="1" parent="124">
                    <mxGeometry x="30" y="35" width="140" height="30" as="geometry"/>
                </mxCell>
                <mxCell id="126" value="" style="edgeStyle=elbowEdgeStyle;elbow=horizontal;endArrow=classic;html=1;curved=0;rounded=0;endSize=8;startSize=8;" edge="1" parent="1">
                    <mxGeometry width="50" height="50" relative="1" as="geometry">
                        <mxPoint x="2002.62" y="239.26999999999998" as="sourcePoint"/>
                        <mxPoint x="2002.62" y="279.27" as="targetPoint"/>
                        <Array as="points">
                            <mxPoint x="2082.62" y="259.27"/>
                        </Array>
                    </mxGeometry>
                </mxCell>
                <mxCell id="127" value="パスワード確認" style="text;html=1;align=center;verticalAlign=middle;resizable=0;points=[];autosize=1;strokeColor=none;fillColor=none;" vertex="1" parent="1">
                    <mxGeometry x="2002.62" y="209.26999999999998" width="110" height="30" as="geometry"/>
                </mxCell>
                <mxCell id="128" value="req httpsCSRF対策&amp;nbsp;ファイルダウンロード要求" style="text;html=1;align=center;verticalAlign=middle;resizable=0;points=[];autosize=1;strokeColor=none;fillColor=none;" vertex="1" parent="1">
                    <mxGeometry x="1712.62" y="165.7" width="270" height="30" as="geometry"/>
                </mxCell>
                <mxCell id="129" value="SELECT" style="text;html=1;align=center;verticalAlign=middle;resizable=0;points=[];autosize=1;strokeColor=none;fillColor=none;" vertex="1" parent="1">
                    <mxGeometry x="2068.12" y="442.72999999999996" width="70" height="30" as="geometry"/>
                </mxCell>
                <mxCell id="130" value="res" style="text;html=1;align=center;verticalAlign=middle;resizable=0;points=[];autosize=1;strokeColor=none;fillColor=none;" vertex="1" parent="1">
                    <mxGeometry x="2082.62" y="482.72999999999996" width="40" height="30" as="geometry"/>
                </mxCell>
                <mxCell id="131" value="res https" style="text;html=1;align=center;verticalAlign=middle;resizable=0;points=[];autosize=1;strokeColor=none;fillColor=none;" vertex="1" parent="1">
                    <mxGeometry x="1822.62" y="600.7" width="70" height="30" as="geometry"/>
                </mxCell>
                <mxCell id="132" value="" style="edgeStyle=elbowEdgeStyle;elbow=horizontal;endArrow=classic;html=1;curved=0;rounded=0;endSize=8;startSize=8;" edge="1" parent="1">
                    <mxGeometry width="50" height="50" relative="1" as="geometry">
                        <mxPoint x="2002.62" y="552.73" as="sourcePoint"/>
                        <mxPoint x="2002.62" y="592.73" as="targetPoint"/>
                        <Array as="points">
                            <mxPoint x="2082.62" y="572.73"/>
                        </Array>
                    </mxGeometry>
                </mxCell>
                <mxCell id="133" value="ファイルフォーマット" style="text;html=1;align=center;verticalAlign=middle;resizable=0;points=[];autosize=1;strokeColor=none;fillColor=none;" vertex="1" parent="1">
                    <mxGeometry x="2007.62" y="522.73" width="140" height="30" as="geometry"/>
                </mxCell>
                <mxCell id="143" value="" style="rhombus;whiteSpace=wrap;html=1;" vertex="1" parent="1">
                    <mxGeometry x="670" y="320" width="80" height="38.57" as="geometry"/>
                </mxCell>
                <mxCell id="148" value="" style="endArrow=classic;html=1;exitX=0;exitY=0.5;exitDx=0;exitDy=0;" edge="1" parent="1" source="143">
                    <mxGeometry width="50" height="50" relative="1" as="geometry">
                        <mxPoint x="480" y="340" as="sourcePoint"/>
                        <mxPoint x="320" y="340" as="targetPoint"/>
                    </mxGeometry>
                </mxCell>
                <mxCell id="149" value="res https" style="text;html=1;align=center;verticalAlign=middle;resizable=0;points=[];autosize=1;strokeColor=none;fillColor=none;" vertex="1" parent="1">
                    <mxGeometry x="490" y="310" width="70" height="30" as="geometry"/>
                </mxCell>
                <mxCell id="150" value="" style="rhombus;whiteSpace=wrap;html=1;" vertex="1" parent="1">
                    <mxGeometry x="1962.62" y="319.27" width="80" height="38.57" as="geometry"/>
                </mxCell>
                <mxCell id="152" value="res https" style="text;html=1;align=center;verticalAlign=middle;resizable=0;points=[];autosize=1;strokeColor=none;fillColor=none;" vertex="1" parent="1">
                    <mxGeometry x="1822.62" y="305.7" width="70" height="30" as="geometry"/>
                </mxCell>
                <mxCell id="153" value="" style="endArrow=classic;html=1;exitX=0;exitY=0.5;exitDx=0;exitDy=0;" edge="1" parent="1" source="150">
                    <mxGeometry width="50" height="50" relative="1" as="geometry">
                        <mxPoint x="1962.6200000000003" y="338.555" as="sourcePoint"/>
                        <mxPoint x="1682.62" y="338.7" as="targetPoint"/>
                    </mxGeometry>
                </mxCell>
                <mxCell id="158" value="" style="endArrow=none;dashed=1;html=1;exitX=0.5;exitY=1;exitDx=0;exitDy=0;" edge="1" parent="1">
                    <mxGeometry width="50" height="50" relative="1" as="geometry">
                        <mxPoint x="-200" y="170" as="sourcePoint"/>
                        <mxPoint x="-200" y="520" as="targetPoint"/>
                    </mxGeometry>
                </mxCell>
                <mxCell id="159" value="" style="endArrow=classic;html=1;" edge="1" parent="1">
                    <mxGeometry width="50" height="50" relative="1" as="geometry">
                        <mxPoint x="-400" y="399.2699999999999" as="sourcePoint"/>
                        <mxPoint x="10" y="399" as="targetPoint"/>
                    </mxGeometry>
                </mxCell>
                <mxCell id="160" value="" style="endArrow=classic;html=1;" edge="1" parent="1">
                    <mxGeometry width="50" height="50" relative="1" as="geometry">
                        <mxPoint x="20" y="439" as="sourcePoint"/>
                        <mxPoint x="-399.4999999999998" y="439.2699999999999" as="targetPoint"/>
                    </mxGeometry>
                </mxCell>
                <mxCell id="161" value="SELECT" style="text;html=1;align=center;verticalAlign=middle;resizable=0;points=[];autosize=1;strokeColor=none;fillColor=none;" vertex="1" parent="1">
                    <mxGeometry x="-334" y="369.2699999999999" width="70" height="30" as="geometry"/>
                </mxCell>
                <mxCell id="162" value="res　ファイル情報取得" style="text;html=1;align=center;verticalAlign=middle;resizable=0;points=[];autosize=1;strokeColor=none;fillColor=none;" vertex="1" parent="1">
                    <mxGeometry x="-374.5" y="409.2699999999999" width="150" height="30" as="geometry"/>
                </mxCell>
                <mxCell id="165" value="" style="endArrow=none;dashed=1;html=1;exitX=0.5;exitY=1;exitDx=0;exitDy=0;" edge="1" parent="1">
                    <mxGeometry width="50" height="50" relative="1" as="geometry">
                        <mxPoint x="919.75" y="160" as="sourcePoint"/>
                        <mxPoint x="918" y="800" as="targetPoint"/>
                    </mxGeometry>
                </mxCell>
                <mxCell id="168" value="" style="endArrow=none;dashed=1;html=1;exitX=0.5;exitY=1;exitDx=0;exitDy=0;" edge="1" parent="1">
                    <mxGeometry width="50" height="50" relative="1" as="geometry">
                        <mxPoint x="2202.62" y="155.7" as="sourcePoint"/>
                        <mxPoint x="2199.62" y="795.7" as="targetPoint"/>
                    </mxGeometry>
                </mxCell>
                <mxCell id="169" value="CDN,キャッシュマネジメント" style="text;html=1;align=center;verticalAlign=middle;resizable=0;points=[];autosize=1;strokeColor=none;fillColor=none;" vertex="1" parent="1">
                    <mxGeometry x="-190" y="365.7" width="180" height="30" as="geometry"/>
                </mxCell>
                <mxCell id="171" value="CDN,キャッシュマネジメント" style="text;html=1;align=center;verticalAlign=middle;resizable=0;points=[];autosize=1;strokeColor=none;fillColor=none;" vertex="1" parent="1">
                    <mxGeometry x="930" y="640" width="180" height="30" as="geometry"/>
                </mxCell>
                <mxCell id="172" value="CDN,キャッシュマネジメント" style="text;html=1;align=center;verticalAlign=middle;resizable=0;points=[];autosize=1;strokeColor=none;fillColor=none;" vertex="1" parent="1">
                    <mxGeometry x="2212.62" y="442.72999999999996" width="180" height="30" as="geometry"/>
                </mxCell>
                <mxCell id="175" value="frontend" style="swimlane;whiteSpace=wrap;html=1;" vertex="1" parent="1">
                    <mxGeometry x="-680" y="80" width="160" height="83.57" as="geometry"/>
                </mxCell>
                <mxCell id="176" value="TypeScript 5.5.2" style="text;html=1;align=center;verticalAlign=middle;resizable=0;points=[];autosize=1;strokeColor=none;fillColor=none;" vertex="1" parent="175">
                    <mxGeometry x="25" y="40" width="110" height="30" as="geometry"/>
                </mxCell>
                <mxCell id="177" value="backend" style="swimlane;whiteSpace=wrap;html=1;" vertex="1" parent="1">
                    <mxGeometry x="-480" y="80" width="160" height="83.57" as="geometry"/>
                </mxCell>
                <mxCell id="178" value="Go 1.22.4" style="text;html=1;align=center;verticalAlign=middle;resizable=0;points=[];autosize=1;strokeColor=none;fillColor=none;" vertex="1" parent="177">
                    <mxGeometry x="40" y="40" width="80" height="30" as="geometry"/>
                </mxCell>
                <mxCell id="179" value="Web Server" style="swimlane;whiteSpace=wrap;html=1;" vertex="1" parent="1">
                    <mxGeometry x="-280" y="80" width="160" height="83.57" as="geometry"/>
                </mxCell>
                <mxCell id="180" value="nginx 1.27.0" style="text;html=1;align=center;verticalAlign=middle;resizable=0;points=[];autosize=1;strokeColor=none;fillColor=none;" vertex="1" parent="179">
                    <mxGeometry x="35" y="40" width="90" height="30" as="geometry"/>
                </mxCell>
                <mxCell id="181" value="DB" style="swimlane;whiteSpace=wrap;html=1;" vertex="1" parent="1">
                    <mxGeometry x="-75" y="80" width="160" height="83.57" as="geometry"/>
                </mxCell>
                <mxCell id="182" value="DynamoDB(by local stack)" style="text;html=1;align=center;verticalAlign=middle;resizable=0;points=[];autosize=1;strokeColor=none;fillColor=none;" vertex="1" parent="181">
                    <mxGeometry y="40" width="160" height="30" as="geometry"/>
                </mxCell>
                <mxCell id="184" value="frontend" style="swimlane;whiteSpace=wrap;html=1;" vertex="1" parent="1">
                    <mxGeometry x="240" y="70" width="160" height="83.57" as="geometry"/>
                </mxCell>
                <mxCell id="185" value="TypeScript 5.5.2" style="text;html=1;align=center;verticalAlign=middle;resizable=0;points=[];autosize=1;strokeColor=none;fillColor=none;" vertex="1" parent="184">
                    <mxGeometry x="25" y="40" width="110" height="30" as="geometry"/>
                </mxCell>
                <mxCell id="186" value="backend" style="swimlane;whiteSpace=wrap;html=1;" vertex="1" parent="1">
                    <mxGeometry x="629.75" y="70" width="160" height="83.57" as="geometry"/>
                </mxCell>
                <mxCell id="187" value="Go 1.22.4" style="text;html=1;align=center;verticalAlign=middle;resizable=0;points=[];autosize=1;strokeColor=none;fillColor=none;" vertex="1" parent="186">
                    <mxGeometry x="40" y="36.790000000000006" width="80" height="30" as="geometry"/>
                </mxCell>
                <mxCell id="188" value="Web Server" style="swimlane;whiteSpace=wrap;html=1;" vertex="1" parent="1">
                    <mxGeometry x="845.25" y="70" width="160" height="83.57" as="geometry"/>
                </mxCell>
                <mxCell id="189" value="nginx 1.27.0" style="text;html=1;align=center;verticalAlign=middle;resizable=0;points=[];autosize=1;strokeColor=none;fillColor=none;" vertex="1" parent="188">
                    <mxGeometry x="35" y="40" width="90" height="30" as="geometry"/>
                </mxCell>
                <mxCell id="190" value="DB" style="swimlane;whiteSpace=wrap;html=1;" vertex="1" parent="1">
                    <mxGeometry x="1035.25" y="70" width="160" height="83.57" as="geometry"/>
                </mxCell>
                <mxCell id="191" value="DynamoDB(by local stack)" style="text;html=1;align=center;verticalAlign=middle;resizable=0;points=[];autosize=1;strokeColor=none;fillColor=none;" vertex="1" parent="190">
                    <mxGeometry y="40" width="160" height="30" as="geometry"/>
                </mxCell>
                <mxCell id="192" value="frontend" style="swimlane;whiteSpace=wrap;html=1;" vertex="1" parent="1">
                    <mxGeometry x="1600" y="65.7" width="160" height="83.57" as="geometry"/>
                </mxCell>
                <mxCell id="193" value="TypeScript 5.5.2" style="text;html=1;align=center;verticalAlign=middle;resizable=0;points=[];autosize=1;strokeColor=none;fillColor=none;" vertex="1" parent="192">
                    <mxGeometry x="25" y="40" width="110" height="30" as="geometry"/>
                </mxCell>
                <mxCell id="194" value="backend" style="swimlane;whiteSpace=wrap;html=1;" vertex="1" parent="1">
                    <mxGeometry x="1922.62" y="65.7" width="160" height="83.57" as="geometry"/>
                </mxCell>
                <mxCell id="195" value="Go 1.22.4" style="text;html=1;align=center;verticalAlign=middle;resizable=0;points=[];autosize=1;strokeColor=none;fillColor=none;" vertex="1" parent="194">
                    <mxGeometry x="40" y="40" width="80" height="30" as="geometry"/>
                </mxCell>
                <mxCell id="196" value="Web Server" style="swimlane;whiteSpace=wrap;html=1;" vertex="1" parent="1">
                    <mxGeometry x="2122.62" y="65.7" width="160" height="83.57" as="geometry"/>
                </mxCell>
                <mxCell id="197" value="nginx 1.27.0" style="text;html=1;align=center;verticalAlign=middle;resizable=0;points=[];autosize=1;strokeColor=none;fillColor=none;" vertex="1" parent="196">
                    <mxGeometry x="35" y="40" width="90" height="30" as="geometry"/>
                </mxCell>
                <mxCell id="198" value="DB" style="swimlane;whiteSpace=wrap;html=1;" vertex="1" parent="1">
                    <mxGeometry x="2312.62" y="65.7" width="160" height="83.57" as="geometry"/>
                </mxCell>
                <mxCell id="199" value="DynamoDB(by local stack)" style="text;html=1;align=center;verticalAlign=middle;resizable=0;points=[];autosize=1;strokeColor=none;fillColor=none;" vertex="1" parent="198">
                    <mxGeometry y="40" width="160" height="30" as="geometry"/>
                </mxCell>
                <mxCell id="200" value="" style="endArrow=none;dashed=1;html=1;exitX=0.5;exitY=1;exitDx=0;exitDy=0;" edge="1" parent="1">
                    <mxGeometry width="50" height="50" relative="1" as="geometry">
                        <mxPoint x="2602.62" y="159.26999999999992" as="sourcePoint"/>
                        <mxPoint x="2602.62" y="805.7" as="targetPoint"/>
                    </mxGeometry>
                </mxCell>
                <mxCell id="201" value="DB" style="swimlane;whiteSpace=wrap;html=1;" vertex="1" parent="1">
                    <mxGeometry x="2522.62" y="65.7" width="160" height="83.57" as="geometry"/>
                </mxCell>
                <mxCell id="202" value="s3(by local stack)" style="text;html=1;align=center;verticalAlign=middle;resizable=0;points=[];autosize=1;strokeColor=none;fillColor=none;" vertex="1" parent="201">
                    <mxGeometry x="20" y="40" width="120" height="30" as="geometry"/>
                </mxCell>
                <mxCell id="203" value="" style="endArrow=classic;html=1;" edge="1" parent="1">
                    <mxGeometry width="50" height="50" relative="1" as="geometry">
                        <mxPoint x="2002.62" y="390.7" as="sourcePoint"/>
                        <mxPoint x="2393.12" y="389.1000000000001" as="targetPoint"/>
                    </mxGeometry>
                </mxCell>
                <mxCell id="204" value="" style="endArrow=classic;html=1;" edge="1" parent="1">
                    <mxGeometry width="50" height="50" relative="1" as="geometry">
                        <mxPoint x="2393.12" y="429.1000000000001" as="sourcePoint"/>
                        <mxPoint x="2003.12" y="430.7" as="targetPoint"/>
                    </mxGeometry>
                </mxCell>
                <mxCell id="205" value="SELECT" style="text;html=1;align=center;verticalAlign=middle;resizable=0;points=[];autosize=1;strokeColor=none;fillColor=none;" vertex="1" parent="1">
                    <mxGeometry x="2068.62" y="360.7" width="70" height="30" as="geometry"/>
                </mxCell>
                <mxCell id="206" value="res" style="text;html=1;align=center;verticalAlign=middle;resizable=0;points=[];autosize=1;strokeColor=none;fillColor=none;" vertex="1" parent="1">
                    <mxGeometry x="2083.12" y="400.7" width="40" height="30" as="geometry"/>
                </mxCell>
                <mxCell id="207" value="CDN,キャッシュマネジメント" style="text;html=1;align=center;verticalAlign=middle;resizable=0;points=[];autosize=1;strokeColor=none;fillColor=none;" vertex="1" parent="1">
                    <mxGeometry x="2212.62" y="357.84000000000003" width="180" height="30" as="geometry"/>
                </mxCell>
                <mxCell id="208" value="" style="endArrow=none;dashed=1;html=1;exitX=0.5;exitY=1;exitDx=0;exitDy=0;" edge="1" parent="1">
                    <mxGeometry width="50" height="50" relative="1" as="geometry">
                        <mxPoint x="1320" y="163.56999999999994" as="sourcePoint"/>
                        <mxPoint x="1320" y="800" as="targetPoint"/>
                    </mxGeometry>
                </mxCell>
                <mxCell id="209" value="DB" style="swimlane;whiteSpace=wrap;html=1;" vertex="1" parent="1">
                    <mxGeometry x="1240" y="70" width="160" height="83.57" as="geometry"/>
                </mxCell>
                <mxCell id="210" value="s3(by local stack)" style="text;html=1;align=center;verticalAlign=middle;resizable=0;points=[];autosize=1;strokeColor=none;fillColor=none;" vertex="1" parent="209">
                    <mxGeometry x="20" y="40" width="120" height="30" as="geometry"/>
                </mxCell>
                <mxCell id="211" value="" style="endArrow=classic;html=1;" edge="1" parent="1">
                    <mxGeometry width="50" height="50" relative="1" as="geometry">
                        <mxPoint x="709.75" y="565" as="sourcePoint"/>
                        <mxPoint x="1120.5" y="564.4300000000001" as="targetPoint"/>
                    </mxGeometry>
                </mxCell>
                <mxCell id="212" value="" style="endArrow=classic;html=1;" edge="1" parent="1">
                    <mxGeometry width="50" height="50" relative="1" as="geometry">
                        <mxPoint x="1120.5" y="603.4300000000001" as="sourcePoint"/>
                        <mxPoint x="710.25" y="605" as="targetPoint"/>
                    </mxGeometry>
                </mxCell>
                <mxCell id="213" value="INSERT" style="text;html=1;align=center;verticalAlign=middle;resizable=0;points=[];autosize=1;strokeColor=none;fillColor=none;" vertex="1" parent="1">
                    <mxGeometry x="775.75" y="535" width="70" height="30" as="geometry"/>
                </mxCell>
                <mxCell id="214" value="res" style="text;html=1;align=center;verticalAlign=middle;resizable=0;points=[];autosize=1;strokeColor=none;fillColor=none;" vertex="1" parent="1">
                    <mxGeometry x="790.25" y="575" width="40" height="30" as="geometry"/>
                </mxCell>
                <mxCell id="215" value="CDN,キャッシュマネジメント" style="text;html=1;align=center;verticalAlign=middle;resizable=0;points=[];autosize=1;strokeColor=none;fillColor=none;" vertex="1" parent="1">
                    <mxGeometry x="930.5" y="526.4300000000001" width="180" height="30" as="geometry"/>
                </mxCell>
                <mxCell id="216" value="" style="edgeStyle=elbowEdgeStyle;elbow=horizontal;endArrow=classic;html=1;curved=0;rounded=0;endSize=8;startSize=8;" edge="1" parent="1">
                    <mxGeometry width="50" height="50" relative="1" as="geometry">
                        <mxPoint x="-400" y="299.99999999999994" as="sourcePoint"/>
                        <mxPoint x="-400" y="339.99999999999994" as="targetPoint"/>
                        <Array as="points">
                            <mxPoint x="-320" y="320"/>
                        </Array>
                    </mxGeometry>
                </mxCell>
                <mxCell id="217" value="OAuth2認証" style="text;html=1;align=center;verticalAlign=middle;resizable=0;points=[];autosize=1;strokeColor=none;fillColor=none;" vertex="1" parent="1">
                    <mxGeometry x="-400" y="270" width="90" height="30" as="geometry"/>
                </mxCell>
                <mxCell id="220" value="docker compose" style="text;html=1;align=center;verticalAlign=middle;resizable=0;points=[];autosize=1;strokeColor=none;fillColor=none;" vertex="1" parent="1">
                    <mxGeometry x="-719.5" y="-30" width="110" height="30" as="geometry"/>
                </mxCell>
                <mxCell id="225" value="container：frontend" style="text;html=1;strokeColor=none;fillColor=none;align=center;verticalAlign=middle;whiteSpace=wrap;rounded=0;dashed=1;" vertex="1" parent="1">
                    <mxGeometry x="-663.75" y="20" width="127.5" height="30" as="geometry"/>
                </mxCell>
                <mxCell id="226" value="container：backend" style="text;html=1;strokeColor=none;fillColor=none;align=center;verticalAlign=middle;whiteSpace=wrap;rounded=0;dashed=1;" vertex="1" parent="1">
                    <mxGeometry x="-466.25" y="20" width="132.5" height="30" as="geometry"/>
                </mxCell>
                <mxCell id="227" value="container：nginx" style="text;html=1;strokeColor=none;fillColor=none;align=center;verticalAlign=middle;whiteSpace=wrap;rounded=0;dashed=1;" vertex="1" parent="1">
                    <mxGeometry x="-266.25" y="20" width="132.5" height="30" as="geometry"/>
                </mxCell>
                <mxCell id="228" value="container：localstack" style="text;html=1;strokeColor=none;fillColor=none;align=center;verticalAlign=middle;whiteSpace=wrap;rounded=0;dashed=1;" vertex="1" parent="1">
                    <mxGeometry x="-61.25" y="20" width="132.5" height="30" as="geometry"/>
                </mxCell>
                <mxCell id="232" value="docker compose" style="text;html=1;align=center;verticalAlign=middle;resizable=0;points=[];autosize=1;strokeColor=none;fillColor=none;" vertex="1" parent="1">
                    <mxGeometry x="200" y="-33.57" width="110" height="30" as="geometry"/>
                </mxCell>
                <mxCell id="237" value="container：frontend" style="text;html=1;strokeColor=none;fillColor=none;align=center;verticalAlign=middle;whiteSpace=wrap;rounded=0;dashed=1;" vertex="1" parent="1">
                    <mxGeometry x="256.25" y="6.43" width="127.5" height="30" as="geometry"/>
                </mxCell>
                <mxCell id="238" value="container：backend" style="text;html=1;strokeColor=none;fillColor=none;align=center;verticalAlign=middle;whiteSpace=wrap;rounded=0;dashed=1;" vertex="1" parent="1">
                    <mxGeometry x="629" y="2.7299999999999995" width="132.5" height="30" as="geometry"/>
                </mxCell>
                <mxCell id="239" value="container：nginx" style="text;html=1;strokeColor=none;fillColor=none;align=center;verticalAlign=middle;whiteSpace=wrap;rounded=0;dashed=1;" vertex="1" parent="1">
                    <mxGeometry x="851.25" y="2.7299999999999995" width="132.5" height="30" as="geometry"/>
                </mxCell>
                <mxCell id="240" value="container：localstack" style="text;html=1;strokeColor=none;fillColor=none;align=center;verticalAlign=middle;whiteSpace=wrap;rounded=0;dashed=1;" vertex="1" parent="1">
                    <mxGeometry x="1056.25" y="2.7299999999999995" width="132.5" height="30" as="geometry"/>
                </mxCell>
                <mxCell id="138" value="エラーチェック" style="swimlane;fontStyle=0;childLayout=stackLayout;horizontal=1;startSize=30;horizontalStack=0;resizeParent=1;resizeParentMax=0;resizeLast=0;collapsible=1;marginBottom=0;whiteSpace=wrap;html=1;" vertex="1" parent="1">
                    <mxGeometry x="719.63" y="210" width="180.25" height="90" as="geometry"/>
                </mxCell>
                <mxCell id="139" value="・pdfのみ許可" style="text;strokeColor=none;fillColor=none;align=left;verticalAlign=middle;spacingLeft=4;spacingRight=4;overflow=hidden;points=[[0,0.5],[1,0.5]];portConstraint=eastwest;rotatable=0;whiteSpace=wrap;html=1;" vertex="1" parent="138">
                    <mxGeometry y="30" width="180.25" height="30" as="geometry"/>
                </mxCell>
                <mxCell id="140" value="・サイズ200MB以内" style="text;strokeColor=none;fillColor=none;align=left;verticalAlign=middle;spacingLeft=4;spacingRight=4;overflow=hidden;points=[[0,0.5],[1,0.5]];portConstraint=eastwest;rotatable=0;whiteSpace=wrap;html=1;" vertex="1" parent="138">
                    <mxGeometry y="60" width="180.25" height="30" as="geometry"/>
                </mxCell>
                <mxCell id="242" value="" style="rounded=0;whiteSpace=wrap;html=1;fillColor=none;dashed=1;" vertex="1" parent="1">
                    <mxGeometry x="2312.62" y="41.29999999999999" width="392.5" height="802.27" as="geometry"/>
                </mxCell>
                <mxCell id="245" value="docker compose" style="text;html=1;align=center;verticalAlign=middle;resizable=0;points=[];autosize=1;strokeColor=none;fillColor=none;" vertex="1" parent="1">
                    <mxGeometry x="1560" y="-30" width="110" height="30" as="geometry"/>
                </mxCell>
                <mxCell id="247" value="container：frontend" style="text;html=1;strokeColor=none;fillColor=none;align=center;verticalAlign=middle;whiteSpace=wrap;rounded=0;dashed=1;" vertex="1" parent="1">
                    <mxGeometry x="1616.25" y="10" width="127.5" height="30" as="geometry"/>
                </mxCell>
                <mxCell id="248" value="container：backend" style="text;html=1;strokeColor=none;fillColor=none;align=center;verticalAlign=middle;whiteSpace=wrap;rounded=0;dashed=1;" vertex="1" parent="1">
                    <mxGeometry x="1921.87" y="8.330000000000004" width="132.5" height="30" as="geometry"/>
                </mxCell>
                <mxCell id="249" value="container：nginx" style="text;html=1;strokeColor=none;fillColor=none;align=center;verticalAlign=middle;whiteSpace=wrap;rounded=0;dashed=1;" vertex="1" parent="1">
                    <mxGeometry x="2136.37" y="6.300000000000004" width="132.5" height="30" as="geometry"/>
                </mxCell>
                <mxCell id="250" value="container：localstack" style="text;html=1;strokeColor=none;fillColor=none;align=center;verticalAlign=middle;whiteSpace=wrap;rounded=0;dashed=1;" vertex="1" parent="1">
                    <mxGeometry x="2341.37" y="6.300000000000004" width="132.5" height="30" as="geometry"/>
                </mxCell>
            </root>
        </mxGraphModel>
    </diagram>
</mxfile>